<svg width="300" height="300" viewBox="0 0 300 300" fill="none" xmlns="http://www.w3.org/2000/svg">
<g id="analysis-icon 1">
<path id="Vector" d="M276.81 98.043C289.597 98.043 300 87.6399 300 74.8532V37.2798C300 24.4931 289.597 14.09 276.81 14.09H23.1898C10.4031 14.09 0 24.4931 0 37.2798V74.8532C0 87.6399 10.4031 98.043 23.1898 98.043H145.597V108.023H23.1898C10.4031 108.023 0 118.427 0 131.213V168.787C0 181.573 10.4031 191.977 23.1898 191.977H145.597V201.957H23.1898C10.4031 201.957 0 212.36 0 225.147V262.72C0 275.507 10.4031 285.91 23.1898 285.91H276.81C289.597 285.91 300 275.507 300 262.72V225.147C300 212.36 289.597 201.957 276.81 201.957H154.403V191.977H276.81C289.597 191.977 300 181.573 300 168.787V131.213C300 118.427 289.597 108.023 276.81 108.023H154.403V98.043H276.81ZM291.194 225.147V262.72C291.194 270.652 284.741 277.104 276.81 277.104H23.1898C15.2589 277.104 8.80626 270.652 8.80626 262.72V225.147C8.80626 217.215 15.2589 210.763 23.1898 210.763H276.81C284.741 210.763 291.194 217.215 291.194 225.147ZM291.194 131.213V168.787C291.194 176.718 284.741 183.17 276.81 183.17H23.1898C15.2589 183.17 8.80626 176.718 8.80626 168.787V131.213C8.80626 123.282 15.2589 116.83 23.1898 116.83H276.81C284.741 116.83 291.194 123.282 291.194 131.213ZM8.80626 74.8532V37.2798C8.80626 29.3483 15.2589 22.8963 23.1898 22.8963H276.81C284.741 22.8963 291.194 29.3483 291.194 37.2798V74.8532C291.194 82.7847 284.741 89.2368 276.81 89.2368H23.1898C15.2589 89.2368 8.80626 82.7847 8.80626 74.8532Z" fill="#06D6A0"/>
<path id="Vector_2" d="M41.9765 37.5734C31.7795 37.5734 23.4834 45.8695 23.4834 56.0665C23.4834 66.2636 31.7795 74.5597 41.9765 74.5597C52.1736 74.5597 60.4697 66.2636 60.4697 56.0665C60.4697 45.8695 52.1736 37.5734 41.9765 37.5734ZM41.9765 65.7534C36.6352 65.7534 32.2896 61.4078 32.2896 56.0665C32.2896 50.7252 36.6352 46.3797 41.9765 46.3797C47.3178 46.3797 51.6634 50.7252 51.6634 56.0665C51.6634 61.4078 47.3178 65.7534 41.9765 65.7534Z" fill="#06D6A0"/>
<path id="Vector_3" d="M84.2466 42.2701C76.6391 42.2701 70.4501 48.4591 70.4501 56.0665C70.4501 63.674 76.6391 69.863 84.2466 69.863C91.854 69.863 98.0431 63.674 98.0431 56.0665C98.0431 48.4591 91.854 42.2701 84.2466 42.2701ZM84.2466 61.0568C81.4949 61.0568 79.2564 58.8182 79.2564 56.0665C79.2564 53.3149 81.4949 51.0763 84.2466 51.0763C86.9982 51.0763 89.2368 53.3149 89.2368 56.0665C89.2368 58.8182 86.9982 61.0568 84.2466 61.0568Z" fill="#06D6A0"/>
<path id="Vector_4" d="M41.9765 131.507C31.7795 131.507 23.4834 139.803 23.4834 150C23.4834 160.197 31.7795 168.493 41.9765 168.493C52.1736 168.493 60.4697 160.197 60.4697 150C60.4697 139.803 52.1736 131.507 41.9765 131.507ZM41.9765 159.687C36.6352 159.687 32.2896 155.341 32.2896 150C32.2896 144.659 36.6352 140.313 41.9765 140.313C47.3178 140.313 51.6634 144.659 51.6634 150C51.6634 155.341 47.3178 159.687 41.9765 159.687Z" fill="#06D6A0"/>
<path id="Vector_5" d="M84.2466 136.204C76.6391 136.204 70.4501 142.393 70.4501 150C70.4501 157.607 76.6391 163.796 84.2466 163.796C91.854 163.796 98.0431 157.607 98.0431 150C98.0431 142.393 91.854 136.204 84.2466 136.204ZM84.2466 154.99C81.4949 154.99 79.2564 152.752 79.2564 150C79.2564 147.248 81.4949 145.01 84.2466 145.01C86.9982 145.01 89.2368 147.248 89.2368 150C89.2368 152.752 86.9982 154.99 84.2466 154.99Z" fill="#06D6A0"/>
<path id="Vector_6" d="M267.417 154.99H112.427C109.995 154.99 108.023 156.961 108.023 159.393C108.023 161.826 109.995 163.796 112.427 163.796H267.417C269.849 163.796 271.82 161.826 271.82 159.393C271.82 156.961 269.849 154.99 267.417 154.99Z" fill="#06D6A0"/>
<path id="Vector_7" d="M108.023 140.607C108.023 143.039 109.995 145.01 112.427 145.01H267.417C269.849 145.01 271.82 143.039 271.82 140.607C271.82 138.174 269.849 136.204 267.417 136.204H112.427C109.995 136.204 108.023 138.174 108.023 140.607Z" fill="#06D6A0"/>
<path id="Vector_8" d="M271.82 65.4599C271.82 63.0276 269.849 61.0567 267.417 61.0567H112.427C109.995 61.0567 108.023 63.0276 108.023 65.4599C108.023 67.8922 109.995 69.863 112.427 69.863H267.417C269.849 69.863 271.82 67.8922 271.82 65.4599Z" fill="#06D6A0"/>
<path id="Vector_9" d="M112.427 51.0763H267.417C269.849 51.0763 271.82 49.1055 271.82 46.6732C271.82 44.2409 269.849 42.2701 267.417 42.2701H112.427C109.995 42.2701 108.023 44.2409 108.023 46.6732C108.023 49.1055 109.995 51.0763 112.427 51.0763Z" fill="#06D6A0"/>
<path id="Vector_10" d="M41.9765 225.44C31.7795 225.44 23.4834 233.736 23.4834 243.933C23.4834 254.131 31.7795 262.427 41.9765 262.427C52.1736 262.427 60.4697 254.131 60.4697 243.933C60.4697 233.736 52.1736 225.44 41.9765 225.44ZM41.9765 253.62C36.6352 253.62 32.2896 249.275 32.2896 243.933C32.2896 238.592 36.6352 234.247 41.9765 234.247C47.3178 234.247 51.6634 238.592 51.6634 243.933C51.6634 249.275 47.3178 253.62 41.9765 253.62Z" fill="#06D6A0"/>
<path id="Vector_11" d="M84.2466 230.137C76.6391 230.137 70.4501 236.326 70.4501 243.933C70.4501 251.541 76.6391 257.73 84.2466 257.73C91.854 257.73 98.0431 251.541 98.0431 243.933C98.0431 236.326 91.854 230.137 84.2466 230.137ZM84.2466 248.924C81.4949 248.924 79.2564 246.685 79.2564 243.933C79.2564 241.182 81.4949 238.943 84.2466 238.943C86.9982 238.943 89.2368 241.182 89.2368 243.933C89.2368 246.685 86.9982 248.924 84.2466 248.924Z" fill="#06D6A0"/>
<path id="Vector_12" d="M267.417 248.924H112.427C109.995 248.924 108.023 250.895 108.023 253.327C108.023 255.759 109.995 257.73 112.427 257.73H267.417C269.849 257.73 271.82 255.759 271.82 253.327C271.82 250.895 269.849 248.924 267.417 248.924Z" fill="#06D6A0"/>
<path id="Vector_13" d="M108.023 234.54C108.023 236.972 109.995 238.943 112.427 238.943H267.417C269.849 238.943 271.82 236.972 271.82 234.54C271.82 232.108 269.849 230.137 267.417 230.137H112.427C109.995 230.137 108.023 232.108 108.023 234.54Z" fill="#06D6A0"/>
</g>
</svg>
