<svg width="200" height="200" viewBox="0 0 200 200" fill="none" xmlns="http://www.w3.org/2000/svg">
<path d="M28.1984 200H171.802C187.347 200 200 187.347 200 171.802V28.1984C200 12.6494 187.347 0 171.802 0H28.1984C12.6527 0 0 12.6494 0 28.1984V171.802C0 187.347 12.6527 200 28.1984 200ZM135.653 54.1416C145.265 54.1416 153.058 61.9339 153.058 71.5461C153.058 81.1588 145.265 88.951 135.653 88.951C126.04 88.951 118.248 81.1588 118.248 71.5461C118.248 61.9339 126.04 54.1416 135.653 54.1416ZM143.793 122.827L151.263 132.849C134.253 145.539 117.187 149.769 102.002 149.769C71.8441 149.769 49.0657 133.094 48.7241 132.844L56.2069 122.828C58.0016 124.158 100.586 155.054 143.793 122.827ZM64.3473 54.1416C73.9596 54.1416 81.7518 61.9339 81.7518 71.5461C81.7518 81.1588 73.9596 88.951 64.3473 88.951C54.7347 88.951 46.9425 81.1588 46.9425 71.5461C46.9425 61.9339 54.7347 54.1416 64.3473 54.1416Z" fill="#06D6A0"/>
</svg>
