<svg width="300" height="300" viewBox="0 0 300 300" fill="none" xmlns="http://www.w3.org/2000/svg">
<g id="implementation-icon">
<path id="Vector" d="M103.033 102.74H145.597V112.72H121.82C119.388 112.72 117.417 114.691 117.417 117.123C117.417 119.556 119.388 121.526 121.82 121.526H178.18C180.612 121.526 182.583 119.556 182.583 117.123C182.583 114.691 180.612 112.72 178.18 112.72H154.403V102.74H196.967C207.164 102.74 215.46 94.4437 215.46 84.2466V23.1898C215.46 12.9928 207.164 4.69669 196.967 4.69669H103.033C92.8362 4.69669 84.5401 12.9928 84.5401 23.1898V84.2466C84.5401 94.4437 92.8362 102.74 103.033 102.74ZM196.967 93.9335H103.033C97.692 93.9335 93.3464 89.5879 93.3464 84.2466V83.953H206.654V84.2466C206.654 89.5879 202.308 93.9335 196.967 93.9335ZM103.033 13.5029H196.967C202.308 13.5029 206.654 17.8485 206.654 23.1898V75.1468H93.3464V23.1898C93.3464 17.8485 97.692 13.5029 103.033 13.5029Z" fill="#118AB2"/>
<path id="Vector_2" d="M112.427 178.474H18.4932C8.29609 178.474 0 186.77 0 196.967V258.023C0 268.221 8.29609 276.517 18.4932 276.517H61.0568V286.497H37.2798C34.8481 286.497 32.8767 288.468 32.8767 290.9C32.8767 293.332 34.8481 295.303 37.2798 295.303H93.6399C96.0716 295.303 98.0431 293.332 98.0431 290.9C98.0431 288.468 96.0716 286.497 93.6399 286.497H69.863V276.517H112.427C122.624 276.517 130.92 268.221 130.92 258.023V196.967C130.92 186.77 122.624 178.474 112.427 178.474ZM18.4932 187.28H112.427C117.768 187.28 122.114 191.625 122.114 196.967V248.924H8.80626V196.967C8.80626 191.625 13.1519 187.28 18.4932 187.28ZM112.427 267.71H18.4932C13.1519 267.71 8.80626 263.365 8.80626 258.023V257.73H122.114V258.023C122.114 263.365 117.768 267.71 112.427 267.71Z" fill="#118AB2"/>
<path id="Vector_3" d="M281.507 178.474H187.573C177.376 178.474 169.08 186.77 169.08 196.967V258.023C169.08 268.221 177.376 276.517 187.573 276.517H230.137V286.497H206.36C203.928 286.497 201.957 288.468 201.957 290.9C201.957 293.332 203.928 295.303 206.36 295.303H262.72C265.152 295.303 267.123 293.332 267.123 290.9C267.123 288.468 265.152 286.497 262.72 286.497H238.943V276.517H281.507C291.704 276.517 300 268.221 300 258.023V196.967C300 186.77 291.704 178.474 281.507 178.474ZM187.573 187.28H281.507C286.848 187.28 291.194 191.625 291.194 196.967V248.924H177.886V196.967C177.886 191.625 182.232 187.28 187.573 187.28ZM281.507 267.71H187.573C182.232 267.71 177.886 263.365 177.886 258.023V257.73H291.194V258.023C291.194 263.365 286.848 267.71 281.507 267.71Z" fill="#118AB2"/>
<path id="Vector_4" d="M230.137 164.09C230.137 166.522 232.108 168.493 234.54 168.493C236.972 168.493 238.943 166.522 238.943 164.09C238.943 153.893 230.647 145.597 220.45 145.597H154.403V135.91C154.403 133.478 152.432 131.507 150 131.507C147.568 131.507 145.597 133.478 145.597 135.91V145.597H79.5499C69.3528 145.597 61.0568 153.893 61.0568 164.09C61.0568 166.522 63.0282 168.493 65.4599 168.493C67.8916 168.493 69.863 166.522 69.863 164.09C69.863 158.749 74.2086 154.403 79.5499 154.403H220.45C225.791 154.403 230.137 158.749 230.137 164.09Z" fill="#118AB2"/>
</g>
</svg>
