<svg width="50" height="50" viewBox="0 0 50 50" fill="none" xmlns="http://www.w3.org/2000/svg">
<g id="menu-icon">
<path id="menu-icon-top" d="M1.56246 10.9375H48.4374C49.2999 10.9375 49.9999 10.2374 49.9999 9.37502C49.9999 8.51249 49.2998 7.81256 48.4374 7.81256H1.56246C0.700055 7.81256 0 8.51249 0 9.37502C0 10.2376 0.700055 10.9375 1.56246 10.9375Z" fill="#FCFCFC"/>
<path id="menu-icon-middle" d="M48.4374 23.4375H1.56246C0.699925 23.4375 0 24.1376 0 25C0 25.8624 0.700055 26.5625 1.56246 26.5625H48.4374C49.2999 26.5625 49.9999 25.8624 49.9999 25C49.9999 24.1376 49.2999 23.4375 48.4374 23.4375Z" fill="#FCFCFC"/>
<path id="menu-icon-bottom" d="M48.4374 39.0625H1.56246C0.699925 39.0625 0 39.7626 0 40.625C0 41.4875 0.700055 42.1875 1.56246 42.1875H48.4374C49.2999 42.1875 49.9999 41.4874 49.9999 40.625C50 39.7625 49.2999 39.0625 48.4374 39.0625Z" fill="#FCFCFC"/>
</g>
</svg>