<svg width="300" height="300" viewBox="0 0 300 300" fill="none" xmlns="http://www.w3.org/2000/svg">
<g id="project-icon">
<path id="Vector" d="M267.417 23.4834H32.5832C14.6166 23.4834 0 38.1 0 56.0665V243.933C0 261.9 14.6166 276.517 32.5832 276.517H267.417C285.383 276.517 300 261.9 300 243.933V56.0665C300 38.1 285.383 23.4834 267.417 23.4834ZM291.194 243.933C291.194 257.044 280.528 267.71 267.417 267.71H32.5832C19.4724 267.71 8.80626 257.044 8.80626 243.933V56.0665C8.80626 42.9558 19.4724 32.2896 32.5832 32.2896H267.417C280.528 32.2896 291.194 42.9558 291.194 56.0665V243.933Z" fill="#FFD166"/>
<path id="Vector_2" d="M276.81 70.4501H23.1898C20.7581 70.4501 18.7867 72.4209 18.7867 74.8532C18.7867 77.2855 20.7581 79.2564 23.1898 79.2564H276.81C279.242 79.2564 281.213 77.2855 281.213 74.8532C281.213 72.4209 279.242 70.4501 276.81 70.4501Z" fill="#FFD166"/>
<path id="Vector_3" d="M32.5832 55.773C33.7456 55.773 34.8787 55.3033 35.6947 54.4814C36.5166 53.6654 36.9863 52.5323 36.9863 51.3699C36.9863 50.2127 36.5166 49.0744 35.6947 48.2583C34.8787 47.4364 33.7456 46.9667 32.5832 46.9667C31.4208 46.9667 30.2877 47.4364 29.4716 48.2583C28.6497 49.0744 28.1801 50.2127 28.1801 51.3699C28.1801 52.5317 28.6497 53.6654 29.4716 54.4814C30.2877 55.3033 31.4208 55.773 32.5832 55.773Z" fill="#FFD166"/>
<path id="Vector_4" d="M70.1565 55.773C71.3131 55.773 72.452 55.3033 73.2681 54.4814C74.09 53.6654 74.5597 52.5323 74.5597 51.3699C74.5597 50.2127 74.09 49.0744 73.2681 48.2583C72.452 47.4364 71.3131 46.9667 70.1565 46.9667C68.9941 46.9667 67.861 47.4364 67.045 48.2583C66.2231 49.0744 65.7534 50.2127 65.7534 51.3699C65.7534 52.5317 66.2231 53.6654 67.045 54.4814C67.861 55.3033 68.9941 55.773 70.1565 55.773Z" fill="#FFD166"/>
<path id="Vector_5" d="M51.3699 55.773C52.5323 55.773 53.6654 55.3033 54.4814 54.4814C55.3033 53.6654 55.773 52.5323 55.773 51.3699C55.773 50.2127 55.3033 49.0744 54.4814 48.2583C53.6654 47.4364 52.5323 46.9667 51.3699 46.9667C50.2133 46.9667 49.0744 47.4364 48.2583 48.2583C47.4364 49.0744 46.9667 50.2127 46.9667 51.3699C46.9667 52.5317 47.4364 53.6654 48.2583 54.4814C49.0744 55.3033 50.2133 55.773 51.3699 55.773Z" fill="#FFD166"/>
<path id="Vector_6" d="M110.843 123.403C109.124 121.684 106.336 121.684 104.617 123.403L57.6499 170.369C55.9303 172.09 55.9303 174.877 57.6499 176.597L104.617 223.563C105.476 224.423 106.603 224.853 107.73 224.853C108.857 224.853 109.984 224.423 110.843 223.563C112.563 221.843 112.563 219.056 110.843 217.336L66.9898 173.483L110.843 129.631C112.563 127.91 112.563 125.123 110.843 123.403Z" fill="#FFD166"/>
<path id="Vector_7" d="M195.383 123.403C193.664 121.684 190.876 121.684 189.157 123.403C187.437 125.123 187.437 127.91 189.157 129.63L233.01 173.483L189.157 217.336C187.437 219.056 187.437 221.843 189.157 223.563C190.016 224.422 191.143 224.852 192.27 224.852C193.397 224.852 194.524 224.422 195.383 223.563L242.35 176.596C244.07 174.876 244.07 172.088 242.35 170.369L195.383 123.403Z" fill="#FFD166"/>
<path id="Vector_8" d="M170.291 117.682C168.006 116.853 165.48 118.03 164.649 120.315L127.076 223.641C126.244 225.928 127.423 228.453 129.709 229.285C130.205 229.465 130.713 229.55 131.213 229.55C133.012 229.55 134.701 228.439 135.352 226.651L172.925 123.325C173.756 121.039 172.577 118.513 170.291 117.682Z" fill="#FFD166"/>
</g>
</svg>
