<svg width="80" height="80" viewBox="0 0 80 80" fill="none" xmlns="http://www.w3.org/2000/svg">
<g id="quotation-mark-blue" clip-path="url(#clip0_10_2)">
<path id="Vector" d="M45.5552 73.8962L45.5552 60.5467C45.5552 58.7362 47.0228 57.2693 48.8333 57.2693C55.2929 57.2693 58.8066 50.644 59.2936 37.568L48.8333 37.568C47.0228 37.568 45.5552 36.0997 45.5552 34.2899L45.5552 6.10318C45.5552 4.29361 47.0228 2.82643 48.8333 2.82643L76.7226 2.82643C78.5337 2.82643 80 4.29475 80 6.10317L80 34.2899C80 40.5583 79.3688 46.3106 78.1247 51.3889C76.8486 56.5959 74.8899 61.1487 72.3045 64.9212C69.6443 68.7982 66.3166 71.8405 62.4133 73.9599C58.4837 76.0921 53.9139 77.1736 48.8322 77.1736C47.0228 77.1736 45.5552 75.7066 45.5552 73.8962ZM3.27835 57.269C1.46878 57.269 -2.3088e-07 58.7374 -7.27227e-08 60.5465L1.09432e-06 73.8959C1.2526e-06 75.7064 1.46855 77.1734 3.27835 77.1734C8.35802 77.1734 12.9285 76.0917 16.8568 73.9596C20.7608 71.8402 24.0902 68.7979 26.7509 64.921C29.3353 61.1485 31.2941 56.5955 32.5704 51.3873C33.8139 46.3074 34.445 40.5551 34.445 34.2897L34.445 6.10295C34.445 4.29338 32.9769 2.8262 31.1669 2.8262L3.27857 2.8262C1.46901 2.8262 0.00159661 4.29453 0.00159676 6.10295L0.00159923 34.2899C0.00159939 36.0994 1.46878 37.568 3.27858 37.568L13.5896 37.568C13.11 50.6438 9.64758 57.269 3.27835 57.269Z" fill="#118AB2"/>
</g>
<defs>
<clipPath id="clip0_10_2">
<rect width="80" height="80" fill="white" transform="translate(80 80) rotate(180)"/>
</clipPath>
</defs>
</svg>
