<svg width="300" height="300" viewBox="0 0 300 300" fill="none" xmlns="http://www.w3.org/2000/svg">
<g id="support-icon" clip-path="url(#clip0_6_78)">
<path id="Vector" d="M299.996 119.793C299.996 66.9562 259.876 23.1198 207.836 18.0337C205.952 11.5614 199.977 6.81397 192.904 6.81397H107.095C100.023 6.81397 94.0483 11.5614 92.1639 18.0337C40.1227 23.1264 0 66.9636 0 119.793V201.445C0 218.783 14.1062 232.89 31.4442 232.89H55.9231C63.208 232.89 69.1345 226.963 69.1345 219.678V132.913C69.1345 125.628 63.208 119.702 55.9231 119.702H31.4442C23.6524 119.702 16.5188 122.557 11.0199 127.267V119.793C11.0199 72.7233 46.7134 33.6526 93.0469 29.0191C95.5455 34.2793 100.895 37.9335 107.095 37.9335H192.904C199.105 37.9335 204.454 34.2793 206.953 29.0191C253.284 33.6467 288.976 72.7174 288.976 119.794V127.264C283.477 122.556 276.345 119.702 268.555 119.702H244.076C236.791 119.702 230.865 125.628 230.865 132.913V219.677C230.865 226.962 236.791 232.889 244.076 232.889H268.555C276.347 232.889 283.48 230.034 288.98 225.323V229.333C288.98 250.153 272.042 267.091 251.222 267.091H184.453C182.037 258.409 174.065 252.017 164.623 252.017H144.525C133.176 252.017 123.942 261.251 123.942 272.601C123.942 283.951 133.176 293.185 144.525 293.185H164.623C174.065 293.185 182.037 286.793 184.453 278.111H251.222C278.118 278.111 300 256.23 300 229.333L299.996 119.793V119.793ZM58.1153 132.913V219.677C58.1153 220.886 57.1323 221.869 55.9238 221.869H53.7323V130.722H55.9238C57.1323 130.722 58.1153 131.705 58.1153 132.913ZM31.4442 130.722H42.7117V221.87H31.4442C20.1819 221.87 11.0199 212.707 11.0199 201.445V151.146C11.0199 139.884 20.1826 130.722 31.4442 130.722V130.722ZM192.904 26.9128H107.095C104.592 26.9128 102.556 24.8763 102.556 22.3733C102.556 19.8704 104.592 17.8339 107.095 17.8339H192.904C195.407 17.8339 197.444 19.8704 197.444 22.3733C197.444 24.8763 195.407 26.9128 192.904 26.9128ZM241.884 219.677V132.913C241.884 131.705 242.867 130.722 244.075 130.722H246.267V221.87H244.075C242.867 221.87 241.884 220.886 241.884 219.677ZM164.623 282.165H144.525C139.252 282.165 134.962 277.875 134.962 272.602C134.962 267.328 139.252 263.038 144.525 263.038H164.623C169.898 263.038 174.188 267.328 174.188 272.602C174.188 277.875 169.898 282.165 164.623 282.165ZM268.555 221.87H257.288V130.722H268.555C279.817 130.722 288.98 139.884 288.98 151.146V201.445C288.98 212.707 279.817 221.87 268.555 221.87Z" fill="#EF476F"/>
</g>
<defs>
<clipPath id="clip0_6_78">
<rect width="300" height="300" fill="white"/>
</clipPath>
</defs>
</svg>
